/* XPM */
static char * bitcoin16_xpm[] = {
"16 16 95 2",
"  	c None",
". 	c #301E00",
"+ 	c #261900",
"@ 	c #2E1D00",
"# 	c #2D1C00",
"$ 	c #231500",
"% 	c #382000",
"& 	c #120A00",
"* 	c #513200",
"= 	c #181000",
"- 	c #010000",
"; 	c #000000",
"> 	c #442800",
", 	c #613800",
"' 	c #1C0F00",
") 	c #3A2000",
"! 	c #0B0600",
"~ 	c #100A00",
"{ 	c #241600",
"] 	c #4B2E00",
"^ 	c #030200",
"/ 	c #593100",
"( 	c #301D00",
"_ 	c #1D1100",
": 	c #402400",
"< 	c #0A0600",
"[ 	c #271500",
"} 	c #664200",
"| 	c #5B3100",
"1 	c #060500",
"2 	c #190F00",
"3 	c #754700",
"4 	c #372400",
"5 	c #3A2400",
"6 	c #2D1900",
"7 	c #0F0800",
"8 	c #7B4F00",
"9 	c #6B3E00",
"0 	c #0C0700",
"a 	c #160D00",
"b 	c #4F3100",
"c 	c #553900",
"d 	c #3C2600",
"e 	c #1F1100",
"f 	c #100900",
"g 	c #4E2B00",
"h 	c #7E5300",
"i 	c #221400",
"j 	c #130B00",
"k 	c #382200",
"l 	c #483000",
"m 	c #3B2500",
"n 	c #190E00",
"o 	c #3F2700",
"p 	c #A86F00",
"q 	c #784C00",
"r 	c #130C00",
"s 	c #040200",
"t 	c #4C3200",
"u 	c #482D00",
"v 	c #251500",
"w 	c #201200",
"x 	c #0E0800",
"y 	c #744D00",
"z 	c #0A0700",
"A 	c #874D00",
"B 	c #201100",
"C 	c #412800",
"D 	c #5E3E00",
"E 	c #271800",
"F 	c #3D2200",
"G 	c #281900",
"H 	c #472700",
"I 	c #905F00",
"J 	c #0A0500",
"K 	c #714500",
"L 	c #382400",
"M 	c #160C00",
"N 	c #664000",
"O 	c #170F00",
"P 	c #5D3300",
"Q 	c #211200",
"R 	c #543300",
"S 	c #3C2700",
"T 	c #7A5000",
"U 	c #563200",
"V 	c #4B2D00",
"W 	c #653A00",
"X 	c #321B00",
"Y 	c #2E1C00",
"Z 	c #422B00",
"` 	c #382600",
" .	c #362200",
"..	c #4F2C00",
"+.	c #311D00",
"                                ",
"                                ",
"          . + @ # $ %           ",
"        & * = - ; > , '         ",
"      ' ) ! ~ ; { ] ^ / (       ",
"    _ : < [ } ; | 1 2 & 3 4     ",
"    5 6 ; 7 8 9 0 ; a ; b c     ",
"    d e f g h i ^ ; j ; k l     ",
"    m n o - p ' q r ; s . t     ",
"    u v w x y a ; z A B C D     ",
"    E F G H I J ; ; ; ! K L     ",
"      w ) M N O ; ; < P k       ",
"        Q R S T U V W X         ",
"          Y Z `  ...+.          ",
"                                ",
"                                "};
