/* XPM */
static char * bitcoin32_xpm[] = {
"32 32 282 2",
"  	c None",
". 	c #603F00",
"+ 	c #4F3400",
"@ 	c #2D1E00",
"# 	c #170F00",
"$ 	c #291A00",
"% 	c #492D00",
"& 	c #5F3800",
"* 	c #3C2400",
"= 	c #020100",
"- 	c #000000",
"; 	c #070400",
"> 	c #321E00",
", 	c #3E2600",
"' 	c #3E2500",
") 	c #311E00",
"! 	c #050300",
"~ 	c #492A00",
"{ 	c #492800",
"] 	c #080500",
"^ 	c #140C00",
"/ 	c #452B00",
"( 	c #432B00",
"_ 	c #050400",
": 	c #0E0800",
"< 	c #362400",
"[ 	c #402500",
"} 	c #4F2E00",
"| 	c #1A0E00",
"1 	c #0C0700",
"2 	c #6F3D00",
"3 	c #442500",
"4 	c #201200",
"5 	c #583500",
"6 	c #6E4400",
"7 	c #1F1400",
"8 	c #683800",
"9 	c #1C1100",
"0 	c #7A4700",
"a 	c #713F00",
"b 	c #311A00",
"c 	c #714100",
"d 	c #482800",
"e 	c #010000",
"f 	c #281600",
"g 	c #442600",
"h 	c #2A1800",
"i 	c #221400",
"j 	c #804B00",
"k 	c #371F00",
"l 	c #643600",
"m 	c #010100",
"n 	c #865000",
"o 	c #080400",
"p 	c #3E2200",
"q 	c #321B00",
"r 	c #2B1800",
"s 	c #261500",
"t 	c #2D1C00",
"u 	c #1A1100",
"v 	c #2C1B00",
"w 	c #B97800",
"x 	c #402300",
"y 	c #522E00",
"z 	c #704200",
"A 	c #0B0700",
"B 	c #2F1B00",
"C 	c #1A0F00",
"D 	c #381F00",
"E 	c #3C2100",
"F 	c #120A00",
"G 	c #412400",
"H 	c #3F2700",
"I 	c #2F1F00",
"J 	c #1E1100",
"K 	c #834600",
"L 	c #0D0A00",
"M 	c #312000",
"N 	c #231500",
"O 	c #633900",
"P 	c #653D00",
"Q 	c #563600",
"R 	c #512F00",
"S 	c #462600",
"T 	c #060400",
"U 	c #3F2300",
"V 	c #754900",
"W 	c #875A00",
"X 	c #6B3B00",
"Y 	c #281500",
"Z 	c #2A1900",
"` 	c #0D0800",
" .	c #030100",
"..	c #7E4B00",
"+.	c #965E00",
"@.	c #462C00",
"#.	c #2B1A00",
"$.	c #341D00",
"%.	c #2E1900",
"&.	c #100900",
"*.	c #985F00",
"=.	c #090600",
"-.	c #221500",
";.	c #7E4400",
">.	c #301900",
",.	c #0A0700",
"'.	c #372100",
").	c #513100",
"!.	c #5D3A00",
"~.	c #3F2A00",
"{.	c #704B00",
"].	c #372300",
"^.	c #422800",
"/.	c #090500",
"(.	c #0D0700",
"_.	c #291900",
":.	c #945C00",
"<.	c #CF8A00",
"[.	c #B87200",
"}.	c #241300",
"|.	c #0E0900",
"1.	c #110900",
"2.	c #845300",
"3.	c #5C3D00",
"4.	c #4E3400",
"5.	c #231700",
"6.	c #5B3900",
"7.	c #4F2C00",
"8.	c #472700",
"9.	c #4C2B00",
"0.	c #523400",
"a.	c #794E00",
"b.	c #160E00",
"c.	c #0C0600",
"d.	c #130C00",
"e.	c #0F0900",
"f.	c #925B00",
"g.	c #7D5300",
"h.	c #271A00",
"i.	c #120B00",
"j.	c #7B4E00",
"k.	c #3F2500",
"l.	c #2D1800",
"m.	c #5E3600",
"n.	c #A26700",
"o.	c #895D00",
"p.	c #955A00",
"q.	c #0C0800",
"r.	c #020200",
"s.	c #110B00",
"t.	c #754800",
"u.	c #A36D00",
"v.	c #130D00",
"w.	c #201500",
"x.	c #623D00",
"y.	c #764500",
"z.	c #472E00",
"A.	c #BD7E00",
"B.	c #543000",
"C.	c #764600",
"D.	c #A56D00",
"E.	c #472F00",
"F.	c #040300",
"G.	c #060300",
"H.	c #633E00",
"I.	c #905F00",
"J.	c #221600",
"K.	c #1D1300",
"L.	c #643F00",
"M.	c #442700",
"N.	c #341F00",
"O.	c #714800",
"P.	c #E39700",
"Q.	c #241600",
"R.	c #0F0800",
"S.	c #2F1C00",
"T.	c #452E00",
"U.	c #0E0700",
"V.	c #805000",
"W.	c #895A00",
"X.	c #251900",
"Y.	c #402900",
"Z.	c #5A3800",
"`.	c #3E2300",
" +	c #603700",
".+	c #160D00",
"++	c #553900",
"@+	c #352200",
"#+	c #915800",
"$+	c #824600",
"%+	c #673700",
"&+	c #0A0600",
"*+	c #704600",
"=+	c #845700",
"-+	c #4D3300",
";+	c #543400",
">+	c #3F2400",
",+	c #190E00",
"'+	c #2C1800",
")+	c #3D2500",
"!+	c #A86E00",
"~+	c #855800",
"{+	c #362000",
"]+	c #4E2F00",
"^+	c #562F00",
"/+	c #221200",
"(+	c #734800",
"_+	c #3D2800",
":+	c #6E4800",
"<+	c #030200",
"[+	c #5A3400",
"}+	c #2F1A00",
"|+	c #322200",
"1+	c #482C00",
"2+	c #391F00",
"3+	c #523200",
"4+	c #9B6400",
"5+	c #875900",
"6+	c #513000",
"7+	c #A96A00",
"8+	c #2D1900",
"9+	c #2C1700",
"0+	c #552E00",
"a+	c #331C00",
"b+	c #966300",
"c+	c #543800",
"d+	c #170D00",
"e+	c #4A2A00",
"f+	c #4E2E00",
"g+	c #4F3200",
"h+	c #533400",
"i+	c #361E00",
"j+	c #351D00",
"k+	c #663D00",
"l+	c #5D3C00",
"m+	c #301A00",
"n+	c #704000",
"o+	c #623A00",
"p+	c #191000",
"q+	c #311B00",
"r+	c #3C2200",
"s+	c #422700",
"t+	c #1B1000",
"u+	c #A56B00",
"v+	c #895C00",
"w+	c #422500",
"x+	c #593000",
"y+	c #512E00",
"z+	c #432400",
"A+	c #362300",
"B+	c #493100",
"C+	c #D48500",
"D+	c #4A2C00",
"E+	c #030300",
"F+	c #392100",
"G+	c #683C00",
"H+	c #472800",
"I+	c #532D00",
"J+	c #170C00",
"K+	c #492900",
"L+	c #674000",
"M+	c #724900",
"N+	c #684500",
"O+	c #976600",
"P+	c #291B00",
"Q+	c #714400",
"R+	c #975500",
"S+	c #754300",
"T+	c #714300",
"U+	c #734200",
"V+	c #703D00",
"W+	c #140D00",
"X+	c #593B00",
"Y+	c #775000",
"Z+	c #4B3200",
"`+	c #492E00",
" @	c #7B4B00",
".@	c #542D00",
"+@	c #512B00",
"@@	c #603E00",
"#@	c #231600",
"$@	c #472C00",
"                                                                ",
"                                                                ",
"                                                                ",
"                                                                ",
"                        . + @ # # $ % &                         ",
"                    * = - ; > , ' ) ! - = ~                     ",
"                { ] ^ / ( _ : - - : < [ } | 1 2                 ",
"              3 - 4 5 6 7 - - - - - 8 9 0 a b - c               ",
"            d e f g h - - - - - i - j - - k l [ m n             ",
"            o p q r - s t u - = v 5 w - - - x y z A             ",
"          B C D E - F G H I - - J K L M N - - O P t Q           ",
"          - R S m - T U V W - - X Y - - Z ` -  ...+.-           ",
"        @.#.$.%.- - &.| *.=.-.;.>.,.- - '.- - - ).!.~.{.        ",
"        ].^.~ /.- - (._.:.<.[.}.- |.- - A 1.- - &.2.3.4.        ",
"        5.6.7.- - &.8.9.0.a.b.c.- d.- - e.1.- - - f.g.h.        ",
"        i.j.[ - - k.l.m.n.o.p.e ! q.r.- s.1.- - - t.u.v.        ",
"        w.x.k - _ y.- J z.A.C B.C.D.E.F.A G.o - - H.I.J.        ",
"        K.L.M.- M N.- ^ O.P.Q.R.S.T.- ^ - - U.- - V.W.X.        ",
"        Y.Z.`.G.m  +- .+z.++S.- - - - @+#+$+%+- &+*+=+-+        ",
"        ;+#.>+,+- '+c.)+!+~+{+- - - - T ]+^+/+- #.(+_+:+        ",
"          <+[+}+|+1+2+3+4+5+i - - - - - - - - - 6+7+T           ",
"          > 8+r 9+G.0+a+b+c+d+- - - - - - - - e+f+g+h+          ",
"            R.i+3 4 o j+k+l+o - - - - - - - m+n+o+p+            ",
"            { R.q+r+s+- t+u+v+] - - - - - w+x+y+C n             ",
"              z+U.D '.6.A+=.B+C+D+E+s.F+G+H+I+J+c               ",
"                K+F {+L+M+N+O+P+Q+R+S+T+U+H+| V+                ",
"                    )+! W+X+Y+Z+`+ @.@+@r.~                     ",
"                        @@+ X.# # #@$@]+                        ",
"                                                                ",
"                                                                ",
"                                                                ",
"                                                                "};
